<svg width="24" height="24" viewBox="0 0 24 24" fill="none" xmlns="http://www.w3.org/2000/svg">
<path d="M5.71236 5.2565L5.7123 5.25653C4.96684 5.60805 4.5 6.38523 4.5 7.21891V11.0974C4.5 15.866 7.60488 20.3778 11.8746 21.484C11.9568 21.5053 12.0432 21.5053 12.1254 21.484C16.3951 20.3778 19.5 15.866 19.5 11.0974V7.21891C19.5 6.38523 19.0332 5.60805 18.2877 5.25653L18.2876 5.2565L12.8458 2.69132C12.8453 2.6911 12.8449 2.69087 12.8444 2.69064C12.312 2.43645 11.688 2.43645 11.1556 2.69064L5.71236 5.2565Z" fill="#009DED" stroke="#006513" stroke-linecap="round" stroke-linejoin="round"/>
<path d="M9.58907 15.8476L7.28773 13.4728C6.9412 13.1152 6.9412 12.5376 7.28773 12.18C7.63427 11.8224 8.19405 11.8224 8.54059 12.18L10.2199 13.9037L15.4446 8.51234C15.7911 8.15474 16.3509 8.15474 16.6975 8.51234C17.044 8.86993 17.044 9.44758 16.6975 9.80517L10.8419 15.8476C10.5043 16.2052 9.93561 16.2052 9.58907 15.8476Z" fill="white"/>
</svg>
