<svg width="138" height="31" viewBox="0 0 138 31" fill="none" xmlns="http://www.w3.org/2000/svg">
<path d="M19.7041 12.4933C20.2036 12.4933 20.6095 12.8983 20.6095 13.3952V21.8909L20.515 21.9606C19.9556 22.3681 19.3642 22.724 18.758 23.0189C18.1509 23.3129 17.4962 23.5588 16.812 23.7471C16.1295 23.9362 15.3923 24.0772 14.6196 24.1666C13.8496 24.2552 13.0127 24.2999 12.1325 24.2999C10.5333 24.2999 9.03217 24.0144 7.66978 23.4513C6.30825 22.8882 5.11236 22.099 4.11506 21.106C3.11776 20.113 2.32512 18.9197 1.7597 17.5588C1.19427 16.1987 0.907227 14.7011 0.907227 13.108C0.907227 11.4875 1.18127 9.97609 1.72154 8.61687C2.26268 7.25422 3.04838 6.06179 4.05782 5.07225C5.06553 4.08358 6.30044 3.30381 7.72701 2.75531C9.15185 2.20853 10.7631 1.93084 12.5166 1.93084C13.422 1.93084 14.2866 2.0065 15.0862 2.15523C15.8849 2.30482 16.6325 2.51201 17.3063 2.76993C17.9818 3.02956 18.6106 3.34336 19.1734 3.70358C19.3139 3.79299 19.4578 3.891 19.6027 3.99159C20.3277 4.50484 20.5098 5.4918 20.0172 6.23803L19.2714 7.36598C19.1144 7.60069 18.9236 7.78724 18.7042 7.92222C18.1839 8.24032 17.5482 8.19819 16.9143 7.80272C16.5319 7.57489 16.1633 7.37286 15.819 7.20436C15.4817 7.03843 15.133 6.90259 14.7844 6.79943C14.4341 6.6954 14.0594 6.61889 13.67 6.5716C13.2763 6.52432 12.8288 6.49939 12.3389 6.49939C11.4404 6.49939 10.6226 6.65929 9.90719 6.97309C9.19347 7.28603 8.57688 7.73394 8.07476 8.30394C7.57091 8.87651 7.17633 9.5746 6.90229 10.3802C6.62565 11.1909 6.48516 12.1082 6.48516 13.108C6.48516 14.2136 6.64039 15.2075 6.94478 16.0603C7.24831 16.9106 7.67238 17.6362 8.20485 18.2182C8.73645 18.7985 9.37472 19.2464 10.1023 19.5508C10.8334 19.856 11.646 20.0107 12.5166 20.0107C13.1861 20.0107 13.7854 19.9531 14.2988 19.8396C14.7619 19.7373 15.2067 19.6024 15.6221 19.439V16.577H13.7281C13.3526 16.577 13.05 16.4713 12.8297 16.2632C12.6042 16.0526 12.4906 15.7826 12.4906 15.462V13.623C12.4906 12.9997 12.9997 12.4933 13.6249 12.4933H19.7041ZM35.5698 10.0161C36.1959 10.6342 36.6911 11.4011 37.0406 12.296C37.3892 13.1858 37.5661 14.2063 37.5661 15.33C37.5661 15.6833 37.5505 15.9765 37.5201 16.2C37.4854 16.4511 37.4221 16.6488 37.325 16.8053C37.2183 16.9772 37.0718 17.0984 36.8897 17.1655C36.7301 17.2248 36.5367 17.254 36.2991 17.254H27.7301C27.8914 18.333 28.247 19.1299 28.7881 19.6226C29.3718 20.1539 30.1393 20.423 31.0689 20.423C31.5736 20.423 32.0107 20.3619 32.3697 20.2433C32.7392 20.1212 33.0722 19.9819 33.361 19.8315C33.6627 19.6741 33.9394 19.5314 34.1909 19.4033C34.4753 19.2598 34.7771 19.1867 35.0876 19.1867C35.5307 19.1867 35.8733 19.3535 36.1057 19.6827L37.018 20.8021C37.3328 21.189 37.3016 21.7581 36.9478 22.0977C36.5974 22.4338 36.2245 22.7244 35.8386 22.9634C35.2784 23.3099 34.6947 23.585 34.105 23.781C33.5179 23.9753 32.9221 24.1129 32.3324 24.1885C31.7488 24.2625 31.1851 24.3003 30.6552 24.3003C29.5591 24.3003 28.515 24.1197 27.5532 23.763C26.5854 23.4053 25.7277 22.8663 25.0036 22.1596C24.2795 21.4538 23.6993 20.5657 23.2804 19.5203C22.8624 18.4774 22.6508 17.2515 22.6508 15.8742C22.6508 14.8296 22.833 13.8263 23.1903 12.8927C23.5493 11.9564 24.0722 11.1242 24.746 10.4176C25.4199 9.71172 26.2463 9.14431 27.2011 8.73165C28.1568 8.31898 29.2504 8.10921 30.448 8.10921C31.486 8.10921 32.4504 8.27256 33.315 8.59495C34.1848 8.91906 34.9436 9.39707 35.5698 10.0161ZM48.9127 20.4558L49.9646 22.0944C50.0721 22.2612 50.1328 22.4581 50.1129 22.655C50.0869 22.9215 49.942 23.1493 49.7192 23.2834C49.2474 23.568 48.7288 23.7949 48.1773 23.9592C47.421 24.1853 46.6284 24.3005 45.821 24.3005C45.0665 24.3005 44.391 24.1887 43.81 23.9686C43.2237 23.7468 42.7225 23.4261 42.3218 23.0169C41.9203 22.6068 41.6124 22.1056 41.4052 21.5279C41.1996 20.957 41.0964 20.3114 41.0964 19.6107V11.9575H40.0289C39.734 11.9575 39.4773 11.8603 39.2657 11.6686C39.0489 11.4726 38.9397 11.1889 38.9397 10.8278V9.71362C38.9397 9.21584 39.2935 8.7877 39.7852 8.69313L41.4182 8.37761L42.2845 4.80118C42.386 4.39712 42.6808 3.91739 43.516 3.91739H45.1038C45.6779 3.91739 46.1428 4.37992 46.1428 4.95078V8.37417H49.0861C49.5162 8.37417 49.8657 8.72236 49.8657 9.1505V10.8992C49.8657 11.4838 49.3896 11.9575 48.8025 11.9575H46.1428V19.3021C46.1428 19.6021 46.2139 19.8497 46.3544 20.038C46.4818 20.2073 46.6648 20.2907 46.9137 20.2907C47.0577 20.2907 47.1765 20.277 47.2667 20.2486C47.3655 20.2194 47.4505 20.1858 47.5216 20.148C47.6084 20.1016 47.6907 20.062 47.7679 20.0251C47.8737 19.9761 47.9934 19.952 48.1252 19.952C48.3151 19.952 48.4747 20.0001 48.5996 20.0947C48.7071 20.1772 48.8095 20.295 48.9127 20.4558ZM72.0684 2.16623C72.4361 2.16623 72.7352 2.46456 72.7352 2.8308V23.1889C72.7352 23.6721 72.3407 24.065 71.8559 24.065H69.9012C69.4867 24.065 69.1268 23.9988 68.8319 23.869C68.531 23.7349 68.2422 23.4941 67.9742 23.152L58.8988 11.0145C58.9049 11.1176 58.911 11.2208 58.9162 11.3222C58.937 11.6825 58.9474 12.0255 58.9474 12.3427V23.1382C58.9474 23.6489 58.5294 24.065 58.0169 24.065H54.8801C54.437 24.065 54.078 23.7065 54.078 23.2654V3.07839C54.078 2.57546 54.489 2.16623 54.9946 2.16623H56.9406C57.1661 2.16623 57.3604 2.17655 57.5182 2.19804C57.6882 2.2204 57.8443 2.26338 57.983 2.327C58.1218 2.39062 58.2571 2.48089 58.3828 2.59437C58.4999 2.70012 58.6317 2.84197 58.7757 3.01564L67.9187 15.2477C67.9101 15.1127 67.9022 14.9795 67.8953 14.8488C67.8762 14.4585 67.8658 14.0862 67.8658 13.7406V2.85487C67.8658 2.47487 68.1763 2.16623 68.5579 2.16623H72.0684ZM80.6533 8.3446C81.0149 8.3446 81.3098 8.63776 81.3098 8.99799V23.4112C81.3098 23.7714 81.0149 24.0654 80.6533 24.0654H76.9199C76.5574 24.0654 76.2634 23.7714 76.2634 23.4112V8.99799C76.2634 8.63776 76.5574 8.3446 76.9199 8.3446H80.6533ZM97.5797 9.83062C98.041 10.3671 98.394 11.0127 98.6299 11.7504C98.8623 12.4811 98.9802 13.2841 98.9802 14.1378V22.9869C98.9802 23.5818 98.4946 24.065 97.8979 24.065H94.8124C94.3276 24.065 93.9339 23.673 93.9339 23.1906V14.1378C93.9339 13.4518 93.7778 12.9144 93.4699 12.5422C93.169 12.1785 92.7302 12.0014 92.1284 12.0014C91.6644 12.0014 91.2212 12.1029 90.8119 12.3023C90.4199 12.4932 90.0358 12.7502 89.6724 13.0657V23.0522C89.6724 23.6102 89.2162 24.065 88.656 24.065H85.4942C85.0155 24.065 84.6261 23.6772 84.6261 23.2001V9.20389C84.6261 8.73018 85.0129 8.34503 85.489 8.34503H87.696C88.0264 8.34503 88.3109 8.4224 88.5415 8.57543C88.7783 8.7319 88.9465 8.96747 89.0419 9.27353L89.2015 9.80569C89.4183 9.61741 89.6394 9.43859 89.8615 9.27439C90.1875 9.02937 90.5431 8.82045 90.916 8.65195C91.2889 8.48516 91.6965 8.35105 92.1284 8.25476C92.5628 8.15847 93.0398 8.10947 93.5463 8.10947C94.4126 8.10947 95.1931 8.2625 95.8661 8.5634C96.5399 8.86602 97.1166 9.29244 97.5797 9.83062ZM106.644 8.3446C106.983 8.3446 107.259 8.61971 107.259 8.95758V24.7609C107.259 25.4951 107.164 26.1975 106.977 26.8475C106.785 27.5112 106.465 28.1001 106.026 28.5996C105.585 29.0999 104.999 29.4997 104.283 29.7868C103.573 30.0714 102.687 30.215 101.648 30.215C101.265 30.215 100.904 30.1926 100.574 30.1471C100.344 30.1152 100.105 30.0723 99.8657 30.0181C99.5796 29.9553 99.3775 29.6845 99.3957 29.3896L99.5241 27.3065C99.5501 27.0323 99.6481 26.8242 99.8146 26.6858C99.9794 26.5491 100.252 26.4855 100.673 26.4855C101.006 26.4855 101.278 26.458 101.485 26.4038C101.668 26.3566 101.807 26.2783 101.911 26.1648C102.015 26.0488 102.091 25.8837 102.136 25.6757C102.186 25.441 102.212 25.1332 102.212 24.7609V8.98681C102.212 8.63261 102.502 8.3446 102.857 8.3446H106.644ZM121.9 9.82065C122.437 10.376 122.854 11.044 123.141 11.8057C123.425 12.564 123.569 13.4031 123.569 14.2998V23.2907C123.569 23.718 123.22 24.0653 122.793 24.0653H121.238C120.761 24.0653 120.404 23.9983 120.145 23.8607C119.871 23.7154 119.654 23.436 119.484 23.0053L119.275 22.4671C118.976 22.7104 118.682 22.9314 118.401 23.1257C118.038 23.3776 117.655 23.5951 117.264 23.7722C116.871 23.9501 116.446 24.0842 116.001 24.1711C115.558 24.2562 115.063 24.3 114.53 24.3C113.81 24.3 113.145 24.2046 112.554 24.0163C111.954 23.8246 111.436 23.5383 111.014 23.1635C110.59 22.7878 110.259 22.3149 110.03 21.7578C109.803 21.2059 109.687 20.5628 109.687 19.8467C109.687 19.2733 109.835 18.6783 110.124 18.0782C110.417 17.4739 110.925 16.9193 111.635 16.431C112.333 15.9513 113.281 15.5455 114.454 15.224C115.57 14.9196 116.978 14.7589 118.641 14.7451V14.323C118.641 13.4865 118.475 12.8821 118.148 12.5279C117.822 12.1737 117.363 12.0018 116.747 12.0018C116.233 12.0018 115.811 12.0568 115.493 12.1651C115.162 12.2786 114.864 12.4067 114.605 12.5468C114.33 12.6973 114.059 12.8331 113.801 12.9509C113.514 13.0824 113.174 13.1486 112.788 13.1486C112.425 13.1486 112.11 13.0584 111.849 12.8804C111.599 12.7084 111.398 12.4918 111.254 12.2365L110.65 11.1945C110.464 10.8729 110.538 10.4586 110.823 10.229C111.676 9.54382 112.621 9.01595 113.632 8.65917C114.781 8.25596 116.027 8.05049 117.338 8.05049C118.288 8.05049 119.161 8.20696 119.929 8.51646C120.7 8.82682 121.364 9.26527 121.9 9.82065ZM137.677 17.1899C137.892 17.6602 138 18.2276 138 18.8749C138 19.6582 137.855 20.3923 137.567 21.0561C137.278 21.7241 136.842 22.3069 136.27 22.7892C135.703 23.2672 134.995 23.6438 134.167 23.9069C133.344 24.1682 132.387 24.3006 131.325 24.3006C130.792 24.3006 130.251 24.249 129.716 24.1493C129.184 24.0496 128.663 23.9129 128.169 23.7435C127.671 23.5733 127.203 23.367 126.779 23.1306C126.522 22.9878 126.285 22.8357 126.071 22.6792C125.752 22.4454 125.671 22 125.883 21.6647L126.696 20.3838C126.842 20.1585 127.021 19.9788 127.226 19.849C127.441 19.7123 127.717 19.6435 128.045 19.6435C128.35 19.6435 128.63 19.7123 128.876 19.849L129.563 20.2316C129.796 20.3614 130.075 20.4852 130.392 20.5978C130.695 20.7061 131.088 20.7612 131.562 20.7612C131.892 20.7612 132.172 20.7268 132.397 20.6606C132.61 20.5961 132.779 20.511 132.902 20.4061C133.021 20.3021 133.111 20.186 133.165 20.0614C133.221 19.9341 133.249 19.8026 133.249 19.6693C133.249 19.4295 133.171 19.2395 133.011 19.0873C132.825 18.9111 132.576 18.7554 132.269 18.6248C131.942 18.4872 131.565 18.3565 131.15 18.2379C130.72 18.1141 130.275 17.9722 129.829 17.8141C129.38 17.655 128.93 17.4607 128.493 17.2355C128.044 17.0042 127.638 16.7076 127.288 16.3534C126.934 15.9949 126.644 15.5521 126.427 15.0372C126.209 14.5213 126.098 13.892 126.098 13.1673C126.098 12.4915 126.232 11.839 126.494 11.2286C126.758 10.6165 127.159 10.0714 127.684 9.60976C128.207 9.14981 128.87 8.78099 129.654 8.5119C130.434 8.24453 131.354 8.10955 132.389 8.10955C132.951 8.10955 133.505 8.16028 134.036 8.26086C134.565 8.36059 135.069 8.5033 135.532 8.6847C135.998 8.86611 136.429 9.08361 136.815 9.33035C137.036 9.47221 137.245 9.62438 137.437 9.78171C137.758 10.0456 137.828 10.5107 137.6 10.8641L136.841 12.0419C136.703 12.2586 136.55 12.4176 136.386 12.5139C136.046 12.7151 135.495 12.7116 135.015 12.5053L134.313 12.2035C134.072 12.1004 133.796 12.0015 133.49 11.9112C133.197 11.8253 132.857 11.7806 132.478 11.7806C131.949 11.7806 131.544 11.8777 131.276 12.0686C131.028 12.2448 130.908 12.4838 130.908 12.7993C130.908 13.0177 130.983 13.1939 131.137 13.3349C131.318 13.5026 131.566 13.6539 131.875 13.7846C132.201 13.923 132.576 14.0562 132.988 14.18C133.415 14.309 133.856 14.4534 134.3 14.6107C134.75 14.7698 135.195 14.9598 135.626 15.173C136.068 15.3931 136.468 15.6682 136.817 15.9906C137.173 16.3181 137.462 16.7222 137.677 17.1899ZM78.8113 5.77843C76.2773 5.77843 76.2773 5.77843 76.2773 3.46492C76.2773 2.07132 77.4116 0.94165 78.8113 0.94165C80.211 0.94165 81.3462 2.07132 81.3462 3.46492C81.3462 5.77843 81.3462 5.77843 78.8113 5.77843ZM104.789 5.77843C102.254 5.77843 102.254 5.77843 102.254 3.46492C102.254 2.07132 103.389 0.94165 104.789 0.94165C106.189 0.94165 107.323 2.07132 107.323 3.46492C107.323 5.77843 107.323 5.77843 104.789 5.77843ZM28.2389 14.148H33.4372C33.4207 13.8874 33.379 13.6293 33.3114 13.3816C33.2263 13.0702 33.0858 12.7881 32.894 12.5438C32.7057 12.3038 32.4515 12.1051 32.1409 11.9545C31.8302 11.804 31.4415 11.7283 30.9869 11.7283C30.1782 11.7283 29.543 11.9554 29.0979 12.4027C28.691 12.8113 28.4012 13.3988 28.2389 14.148ZM115.812 18.4925C115.508 18.6499 115.299 18.8245 115.19 19.012C115.076 19.2056 115.021 19.4094 115.021 19.6374C115.021 20.0821 115.134 20.3917 115.356 20.5569C115.599 20.7384 115.975 20.8304 116.473 20.8304C117.027 20.8304 117.516 20.7332 117.926 20.5431C118.321 20.3599 118.728 20.0614 119.137 19.6572V17.8964C118.345 17.9058 117.678 17.9635 117.155 18.0684C116.588 18.1828 116.136 18.3256 115.812 18.4925Z" fill="black"/>
</svg>
